<svg xmlns="http://www.w3.org/2000/svg" xmlns:xlink="http://www.w3.org/1999/xlink" width="100%" height="100%" fill-rule="evenodd" stroke-linejoin="round" stroke-miterlimit="1.414" clip-rule="evenodd" version="1.1" viewBox="0 0 26 26" xml:space="preserve"><g id="Artboard1" transform="matrix(0.808159,0,0,0.784348,-1.18203,-1.41183)"><rect width="31.3" height="32.3" x="1.463" y="1.8" fill="none"/><g><g transform="matrix(1.14645,0,0,1.14469,-3.01401,-2.1485) matrix(1.09077,0,0,1.17654,1.78153,0.746853)"><rect width="9.398" height="2.833" x="15.397" y="22.096" fill="#FBFBFB"/></g><g transform="matrix(1.14645,0,0,1.14469,-3.01401,-2.1485) matrix(1.83321,-1.36916,0.754014,1.07511,-39.0326,25.3746)"><rect width="9.398" height="2.833" x="15.397" y="22.096" fill="#FBFBFB"/></g><g><path fill="#FBFBFB" d="M24.795,22.096L15.397,22.096L15.173,24.952L24.795,24.929L24.795,22.096Z" transform="matrix(1.14645,0,0,1.14469,-3.01401,-2.1485) matrix(-1.26155,-1.3975,0.941009,-0.904614,21.3951,61.6015)"/></g></g></g></svg>